<svg width="20" height="21" viewBox="0 0 20 21" fill="none" xmlns="http://www.w3.org/2000/svg">
<path d="M14.6 12.3199C14.4 12.2199 13.1 11.6199 12.9 11.5199C12.7 11.4199 12.5 11.4199 12.3 11.6199C12.1 11.8199 11.7 12.4199 11.5 12.6199C11.4 12.8199 11.2 12.8199 11 12.7199C10.3 12.4199 9.6 12.0199 9 11.5199C8.5 11.0199 8 10.4199 7.6 9.81991C7.5 9.61991 7.6 9.41991 7.7 9.31991C7.8 9.21991 7.9 9.01991 8.1 8.91991C8.2 8.81991 8.3 8.61991 8.3 8.51991C8.4 8.41991 8.4 8.21991 8.3 8.11991C8.2 8.01991 7.7 6.81991 7.5 6.31991C7.4 5.61991 7.2 5.61991 7 5.61991C6.9 5.61991 6.7 5.61991 6.5 5.61991C6.3 5.61991 6 5.81991 5.9 5.91991C5.3 6.51991 5 7.21991 5 8.01991C5.1 8.91991 5.4 9.81991 6 10.6199C7.1 12.2199 8.5 13.5199 10.2 14.3199C10.7 14.5199 11.1 14.7199 11.6 14.8199C12.1 15.0199 12.6 15.0199 13.2 14.9199C13.9 14.8199 14.5 14.3199 14.9 13.7199C15.1 13.3199 15.1 12.9199 15 12.5199C15 12.5199 14.8 12.4199 14.6 12.3199ZM17.1 3.21991C13.2 -0.680093 6.9 -0.680093 3 3.21991C-0.2 6.41991 -0.8 11.3199 1.4 15.2199L0 20.3199L5.3 18.9199C6.8 19.7199 8.4 20.1199 10 20.1199C15.5 20.1199 19.9 15.7199 19.9 10.2199C20 7.61991 18.9 5.11991 17.1 3.21991ZM14.4 17.2199C13.1 18.0199 11.6 18.5199 10 18.5199C8.5 18.5199 7.1 18.1199 5.8 17.4199L5.5 17.2199L2.4 18.0199L3.2 15.0199L3 14.7199C0.6 10.7199 1.8 5.71991 5.7 3.21991C9.6 0.719907 14.6 2.01991 17 5.81991C19.4 9.71991 18.3 14.8199 14.4 17.2199Z" fill="#F9F9F9"/>
</svg>
